<?xml version="1.0" encoding="UTF-8" standalone="no"?>
<svg
   xmlns:dc="http://purl.org/dc/elements/1.1/"
   xmlns:cc="http://creativecommons.org/ns#"
   xmlns:rdf="http://www.w3.org/1999/02/22-rdf-syntax-ns#"
   xmlns:svg="http://www.w3.org/2000/svg"
   xmlns="http://www.w3.org/2000/svg"
   width="454pt"
   height="402pt"
   viewBox="0 0 454 402"
   version="1.1"
   id="svg2555">
  <metadata
     id="metadata2561">
    <rdf:RDF>
      <cc:Work
         rdf:about="">
        <dc:format>image/svg+xml</dc:format>
        <dc:type
           rdf:resource="http://purl.org/dc/dcmitype/StillImage" />
        <dc:title></dc:title>
      </cc:Work>
    </rdf:RDF>
  </metadata>
  <defs
     id="defs2559" />
  <path
     id="path869"
     style="fill:#ffffff;fill-opacity:1;fill-rule:nonzero;stroke:none;stroke-width:3.24363"
     d="M 71.035039,13.899391 H 408.11887 V 386.20886 H 71.035039 Z" />
  <path
     id="path871"
     style="fill:#000000;fill-opacity:1;fill-rule:nonzero;stroke:none;stroke-width:3.24363"
     d="M 72.251069,385.66379 H 371.0315 V 14.45096 H 72.251069 Z" />
  <path
     id="path873"
     style="fill:#fbc83f;fill-opacity:1;fill-rule:nonzero;stroke:none;stroke-width:3.24363"
     d="M 72.225099,316.71755 H 371.0056 V 14.489892 H 72.225099 Z" />
  <path
     id="path875"
     style="fill:#000000;fill-opacity:1;fill-rule:nonzero;stroke:none;stroke-width:3.24363"
     d="M 186.64878,151.75932 H 145.20645 L 85.679269,299.02516 H 127.1216 l 41.44237,-102.53028 8.03874,22.6176 h 20.84765 l -17.83509,-49.50825 7.03351,-17.84491" />
  <path
     id="path877"
     style="fill:#000000;fill-opacity:1;fill-rule:nonzero;stroke:none;stroke-width:3.24363"
     d="M 186.64878,151.75932 H 145.20645 L 85.679269,299.02516 H 127.1216 l 41.44237,-102.53028 8.03874,22.6176 h 20.84765 l -17.83509,-49.50825 7.03351,-17.84491" />
  <path
     id="path879"
     style="fill:#000000;fill-opacity:1;fill-rule:nonzero;stroke:none;stroke-width:3.24363"
     d="m 242.40784,151.75932 h -21.09733 l 18.33454,50.26423 -39.18214,97.00161 h 41.69527 l 38.17686,-95.24308 37.67427,95.24308 h 41.44233 L 301.68531,151.75932 h -41.69528 l -9.29373,23.12053 -8.28846,-23.12053" />
  <path
     id="path881"
     style="fill:#000000;fill-opacity:1;fill-rule:nonzero;stroke:none;stroke-width:3.24363"
     d="m 211.01154,219.11248 -24.11307,-67.35316 h 20.84765 l 24.11306,67.35316 h -20.84764" />
  <path
     id="path883"
     style="fill:#000000;fill-opacity:1;fill-rule:nonzero;stroke:none;stroke-width:3.24363"
     d="m 211.01154,219.11248 -24.11307,-67.35316 h 20.84765 l 24.11306,67.35316 h -20.84764" />
  <path
     id="path885"
     style="fill:#000000;fill-opacity:1;fill-rule:nonzero;stroke:none;stroke-width:3.24363"
     d="m 242.40784,151.75932 h -21.09733 l 18.33454,50.26423 -39.18214,97.00161 h 41.69527 l 38.17686,-95.24308 37.67427,95.24308 h 41.44233 L 301.68531,151.75932 h -41.69528 l -9.29373,23.12053 -8.28846,-23.12053" />
  <path
     id="path887"
     style="fill:#ffffff;fill-opacity:1;fill-rule:nonzero;stroke:none;stroke-width:3.24363"
     d="m 211.85465,370.9466 c 9.05704,0 16.20406,-7.42347 16.20406,-16.82934 0,-9.1593 -7.14702,-16.58281 -16.20406,-16.58281 -8.81379,0 -16.20074,7.42351 -16.20074,16.58281 0,9.40587 7.38695,16.82934 16.20074,16.82934 z m 0,-26.23522 c 5.00356,0 9.05704,4.45471 9.05704,9.40588 0,5.19772 -4.05348,9.40587 -9.05704,9.40587 -5.00357,0 -8.81379,-4.20815 -8.81379,-9.40587 0,-4.95117 3.81022,-9.40588 8.81379,-9.40588" />
  <path
     id="path889"
     style="fill:#ffffff;fill-opacity:1;fill-rule:nonzero;stroke:none;stroke-width:3.24363"
     d="m 308.83231,352.13484 c 0,-1.48273 0.47673,-2.96875 0.9534,-4.45472 0.95337,-1.97918 2.38344,-4.95116 7.86365,-5.44433 v -3.9616 c -2.14343,0.24984 -4.52688,0.74308 -6.19362,1.98244 -1.19336,0.74304 -1.90677,1.97916 -2.62343,3.21533 v -4.45475 h -3.57351 v 30.69324 h 3.57351 v -17.57561" />
  <path
     id="path891"
     style="fill:#ffffff;fill-opacity:1;fill-rule:nonzero;stroke:none;stroke-width:3.24363"
     d="m 241.16266,369.71045 8.1036,-20.54436 7.86045,20.54436 h 4.52685 l 10.01037,-30.69324 h -4.05345 l -8.10037,25.98867 -10.24385,-25.98867 -10.48378,25.98867 -7.86367,-25.98867 h -4.05022 l 9.76719,30.69324 h 4.52688" />
  <path
     id="path893"
     style="fill:#ffffff;fill-opacity:1;fill-rule:nonzero;stroke:none;stroke-width:3.24363"
     d="m 286.43466,370.70003 c 5.7202,0 12.86722,-3.71174 15.25065,-10.89188 h -4.29017 c -0.71337,2.72216 -5.95692,7.18014 -11.1972,6.93032 -5.05542,-0.22712 -10.7043,-4.46124 -11.55393,-11.13846 h 27.9947 c 0.23671,-9.89907 -6.19694,-18.31539 -15.96407,-18.06556 -5.95692,0 -15.96405,4.45476 -15.96405,16.82938 0,12.12805 10.9605,16.3362 15.72407,16.3362 z m -0.23672,-29.20722 c 7.14705,-0.2466 11.91389,5.94072 12.1506,10.39545 h -21.20433 l -2.52286,3.57222 c -0.0616,-0.51915 -0.10052,-1.04472 -0.10052,-1.59306 0,-5.93748 4.52684,-12.12804 11.67711,-12.37461" />
  <path
     id="path895"
     style="fill:#ffffff;fill-opacity:1;fill-rule:nonzero;stroke:none;stroke-width:3.24363"
     d="m 344.09725,369.71045 -14.77075,-16.58601 13.10395,-14.10723 h -5.24352 l -12.39052,14.10723 14.29725,16.58601 h 5.00359" />
  <path
     id="path897"
     style="fill:#ffffff;fill-opacity:1;fill-rule:nonzero;stroke:none;stroke-width:3.24363"
     d="m 320.2695,369.71045 h 3.81348 v -41.58186 h -3.81348 z" />
  <path
     id="path899"
     style="fill:#ffffff;fill-opacity:1;fill-rule:nonzero;stroke:none;stroke-width:3.24363"
     d="m 352.43758,370.45344 c 7.62373,0 9.29371,-6.68373 9.29371,-8.91271 0.23672,-3.46515 -0.71661,-7.42347 -8.10363,-9.40589 -6.43036,-1.97916 -5.48025,-4.94789 -5.48025,-5.44432 0,-0.74302 0.47672,-4.70131 4.29017,-4.70131 4.76683,0 4.76683,4.70131 4.76683,4.70131 h 3.81027 c 0,-1.23615 -0.95337,-8.41633 -8.34039,-8.41633 -7.62367,0 -8.3371,7.42675 -8.57704,8.41633 0,3.21858 1.66998,7.42674 7.38696,8.6629 6.43362,1.48598 6.43362,5.4443 6.43362,6.18731 0,0.49644 -0.47673,5.44756 -5.48025,5.44756 -5.48022,-0.24982 -5.48022,-5.94073 -5.48022,-5.94073 h -4.05023 c -0.47671,0.98958 1.43006,9.65247 9.53045,9.40588" />
  <path
     id="path901"
     style="fill:#ffffff;fill-opacity:1;fill-rule:nonzero;stroke:none;stroke-width:3.24363"
     d="m 147.75849,370.9466 c 5.95692,0 12.39054,-3.71172 14.77394,-9.89904 h -8.10036 c -1.66677,1.48275 -4.05023,2.47557 -6.19694,2.47557 -5.4802,0 -9.29043,-3.21857 -9.29043,-9.9023 0,-4.95114 3.81023,-8.90945 8.57703,-8.66287 3.09687,-0.24658 6.19368,0.98958 8.10042,4.20813 l 0.71658,1.73259 h -12.86722 l -3.81347,6.43389 h 23.58776 v -0.73971 c 0.71662,-3.46841 0,-7.42671 -1.42682,-10.39546 -1.90674,-3.96161 -5.95692,-7.18019 -9.7704,-8.16975 -5.95693,-1.48604 -12.15058,0.24658 -16.20402,4.70131 -4.28691,5.44758 -5.48024,12.87105 -2.38014,19.05834 2.85683,5.69415 8.81379,9.1593 14.29401,9.1593" />
  <path
     id="path903"
     style="fill:#ffffff;fill-opacity:1;fill-rule:nonzero;stroke:none;stroke-width:3.24363"
     d="m 90.572609,351.14526 c 0,-0.98958 0.47668,-6.68047 6.19689,-6.68047 5.716971,0 5.956931,6.68047 5.956931,6.68047 v 18.56519 h 7.14699 c 0,0 0,-18.31536 0,-18.81177 0,-0.49647 0.9534,-6.1873 6.19692,-6.1873 5.9569,0 5.9569,6.43388 5.9569,6.43388 v 18.81177 h 6.91033 v -21.28734 c 0,-6.68048 -5.48028,-11.38507 -12.63054,-11.38507 -5.95689,0 -9.29371,4.70459 -9.29371,4.70459 -0.23672,-0.24983 -2.85683,-4.70459 -9.053731,-4.70459 -6.43361,0 -8.10039,3.71501 -8.10039,3.71501 v -2.72544 h -6.67033 v 31.43626 h 7.38374 c 0,0 0,-17.57561 0,-18.56519" />
  <path
     id="path905"
     style="fill:#ffffff;fill-opacity:1;fill-rule:nonzero;stroke:none;stroke-width:3.24363"
     d="m 167.53602,369.95703 h 7.15026 v -24.75248 h 4.52685 v -6.43391 h -4.29015 v -10.39549 h -7.14699 v 10.39549 h -3.57351 v 6.43391 h 3.33354 v 24.75248" />
  <path
     id="path907"
     style="fill:#ffffff;fill-opacity:1;fill-rule:nonzero;stroke:none;stroke-width:3.24363"
     d="m 189.45698,352.63125 c 0,0 -0.95334,-7.67329 6.43362,-7.67329 v -6.93031 c -3.33677,0 -4.52685,0.24658 -7.14702,3.71173 v -2.96874 h -6.43359 v 31.18639 h 7.14699 v -17.32578" />
  <path
     id="path909"
     style="fill:#000000;fill-opacity:1;fill-rule:nonzero;stroke:none;stroke-width:3.24363"
     d="m 390.34535,380.05724 h -2.69472 v -13.6335 h 5.15598 c 3.4146,0 5.28567,1.08367 5.28567,4.03944 0,2.49828 -1.51111,3.48462 -3.28167,3.64684 l 3.28167,5.94722 h -2.9866 l -3.05468,-5.81418 h -1.70565 z m 0,-7.91664 h 2.32827 c 1.97162,0 2.66232,-0.62627 2.66232,-1.90454 0,-1.28158 -0.82368,-1.70986 -2.79201,-1.70986 h -2.19858 z m -10.31194,1.11612 c 0,-7.39103 5.87908,-12.18645 12.47806,-12.18645 6.59904,0 12.4749,4.79542 12.4749,12.18645 0,7.42347 -5.87586,12.18643 -12.4749,12.18643 -6.59898,0 -12.47806,-4.76296 -12.47806,-12.18643 z m 12.47806,-9.62652 c -5.18839,0 -9.25801,4.01023 -9.25801,9.62652 0,5.61627 4.06962,9.62326 9.25801,9.62326 5.12034,0 9.25809,-4.00699 9.25809,-9.62326 0,-5.61629 -4.13775,-9.62652 -9.25809,-9.62652" />
</svg>
