<?xml version="1.0" encoding="UTF-8" standalone="no"?>
<svg
   xmlns:dc="http://purl.org/dc/elements/1.1/"
   xmlns:cc="http://creativecommons.org/ns#"
   xmlns:rdf="http://www.w3.org/1999/02/22-rdf-syntax-ns#"
   xmlns:svg="http://www.w3.org/2000/svg"
   xmlns="http://www.w3.org/2000/svg"
   width="175.43764mm"
   height="95.76017mm"
   viewBox="0 0 175.43765 95.760169"
   version="1.1"
   id="svg12637">
  <defs
     id="defs12631">
    <clipPath
       id="clipPath36"
       clipPathUnits="userSpaceOnUse">
      <path
         id="path34"
         d="M 96,256 H 927 V 170 H 96 Z" />
    </clipPath>
    <clipPath
       id="clipPath42"
       clipPathUnits="userSpaceOnUse">
      <path
         id="path40"
         d="M 96,256 H 927 V 170 H 96 Z" />
    </clipPath>
  </defs>
  <metadata
     id="metadata12634">
    <rdf:RDF>
      <cc:Work
         rdf:about="">
        <dc:format>image/svg+xml</dc:format>
        <dc:type
           rdf:resource="http://purl.org/dc/dcmitype/StillImage" />
        <dc:title></dc:title>
      </cc:Work>
    </rdf:RDF>
  </metadata>
  <g
     id="layer1"
     transform="translate(71.128972,25.117425)">
    <path
       id="path1728"
       style="fill:#007564;fill-opacity:1;fill-rule:nonzero;stroke:none;stroke-width:1.85208"
       d="M -2.6577232,-22.150387 -19.485757,32.656463 -32.122507,5.2771347 Z m -48.6783138,56.81634 6.035977,-20.028435 9.158521,20.028435 z m 45.9279963,0 6.7304475,-21.924945 c 2.5262475,5.750745 9.2659872,9.2641 13.8072902,9.282632 7.269412,0.8316 13.962847,-5.471027 14.737012,-8.878855 l -0.468825,5.859945 8.984483,-0.13125 0.792697,-6.358222 c 1.746465,10.132765 8.628848,18.380092 17.863335,22.150904 z m 84.4697697,0 c 11.0292,-4.393148 18.756098,-14.95557 18.570878,-27.5274833 h -13.32576 c 0.137024,8.9140803 -6.98607,16.3446183 -15.903825,16.4742933 -8.906678,0.13335 -16.240928,-6.9898 -16.368713,-15.9019908 -0.13335,-8.9122425 6.987907,-16.2464925 15.89826,-16.378005 4.454257,-0.064575 8.517758,1.68357 11.481067,4.5616725 l 8.925211,-9.9012377 c -5.378468,-5.050604 -12.646043,-8.101012 -20.5989,-7.982467 -11.831086,0.1743 -21.904576,7.31388 -26.44215,17.4392397 l 2.56326,-20.5673997 H 32.448502 l -7.77315,25.9477047 c -1.459448,5.7414525 -4.137578,6.95268 -8.119545,6.89157 -3.859748,0.0609 -7.0786805,-3.6430275 -6.6008255,-7.2786525 l 2.7780905,-24.7216192 0.253575,-0.839003 H 12.825472 5.0319518 0.5239343 -1.7430157 -20.284177 l -18.083782,17.0058522 5.18217,-17.0058522 h -14.737065 l -18.876428,62.1411 H 98.454704 v -2.357723 z" />
    <path
       d="M -71.128972,40.044843 H 104.30866 V 70.642744 H -71.128972 Z"
       style="fill:#3a8981;fill-opacity:1;fill-rule:nonzero;stroke:none;stroke-width:0.274066"
       id="path28" />
    <g
       clip-path="url(#clipPath42)"
       id="g38"
       transform="matrix(0.21166667,0,0,-0.21166667,-92.727573,107.45689)">
      <g
         transform="matrix(1,0,0,-1,100,252)"
         id="g44">
        <g
           style="font-variant:normal;font-weight:500;font-size:50px;font-family:'Futura Md BT';-inkscape-font-specification:Futura-Medium;writing-mode:lr-tb;fill:#ffffff;fill-opacity:1;fill-rule:nonzero;stroke:none"
           id="text48"
           transform="translate(61.7197,52)"
           aria-label="K">
          <path
             id="path12798"
             d="m 4.1015625,0 v -35.742187 h 5.8105469 v 14.794921 L 22.753906,-35.742187 h 7.104492 L 15.698242,-19.848633 31.542969,0 H 24.047852 L 9.9121094,-18.261719 V 0 Z" />
        </g>
        <g
           style="font-variant:normal;font-weight:500;font-size:50px;font-family:'Futura Md BT';-inkscape-font-specification:Futura-Medium;writing-mode:lr-tb;fill:#ffffff;fill-opacity:1;fill-rule:nonzero;stroke:none"
           id="text52"
           transform="translate(92.75,52)"
           aria-label="y">
          <path
             id="path12801"
             d="M 7.6416016,10.888672 H 2.1972656 L 8.5449219,-2.0019531 0.04882812,-23.144531 H 5.9082031 l 4.2480469,11.987304 q 0.366211,1.098633 0.634766,2.2460942 0.292968,1.1230469 0.463867,2.2949219 0.317383,-1.2207032 1.513672,-3.8818361 l 0.12207,-0.292969 5.712891,-12.353515 h 5.737304 z" />
        </g>
        <g
           style="font-variant:normal;font-weight:500;font-size:50px;font-family:'Futura Md BT';-inkscape-font-specification:Futura-Medium;writing-mode:lr-tb;fill:#ffffff;fill-opacity:1;fill-rule:nonzero;stroke:none"
           id="text56"
           transform="translate(118.971,52)"
           aria-label="o">
          <path
             id="path12804"
             d="m 21.850586,-11.499023 q 0,-3.222657 -2.075195,-5.444336 -2.075196,-2.246094 -5.078125,-2.246094 -2.978516,0 -5.0781254,2.246094 -2.0751953,2.221679 -2.0751953,5.444336 0,3.2226558 2.0751953,5.4687496 2.0996094,2.2216796 5.0781254,2.2216796 2.978515,0 5.053711,-2.2216796 2.099609,-2.2460938 2.099609,-5.4687496 z m -19.897461,-0.04883 q 0,-2.539062 0.9521484,-4.785156 0.9765625,-2.270508 2.7832032,-4.02832 1.7822265,-1.733399 4.1015625,-2.661133 2.3193359,-0.927734 4.8583989,-0.927734 2.612304,0 4.907226,0.927734 2.319336,0.927734 4.150391,2.734375 1.831054,1.782227 2.783203,4.02832 0.952148,2.246094 0.952148,4.711914 0,2.563477 -0.952148,4.8095708 -0.927735,2.2460937 -2.734375,3.9794921 Q 21.850586,-0.92773438 19.53125,0 17.211914,0.95214844 14.648438,0.95214844 12.133789,0.95214844 9.8144531,0 7.4951172,-0.92773438 5.6884766,-2.7099609 3.8574219,-4.5166016 2.9052734,-6.7626953 1.953125,-9.0087891 1.953125,-11.547853 Z" />
        </g>
        <g
           style="font-variant:normal;font-weight:500;font-size:50px;font-family:'Futura Md BT';-inkscape-font-specification:Futura-Medium;writing-mode:lr-tb;fill:#ffffff;fill-opacity:1;fill-rule:nonzero;stroke:none"
           id="text60"
           transform="translate(149.317,52)"
           aria-label="t">
          <path
             id="path12807"
             d="M 4.9072266,0 V -18.505859 H 0.85449219 v -4.638672 H 4.9072266 v -8.764649 h 5.2978514 v 8.764649 h 4.052735 v 4.638672 H 10.205078 V 0 Z" />
        </g>
        <g
           style="font-variant:normal;font-weight:500;font-size:50px;font-family:'Futura Md BT';-inkscape-font-specification:Futura-Medium;writing-mode:lr-tb;fill:#ffffff;fill-opacity:1;fill-rule:nonzero;stroke:none"
           id="text64"
           transform="translate(163.331,52)"
           aria-label="o Micr">
          <path
             id="path12810"
             d="m 21.850586,-11.499023 q 0,-3.222657 -2.075195,-5.444336 -2.075196,-2.246094 -5.078125,-2.246094 -2.978516,0 -5.0781254,2.246094 -2.0751953,2.221679 -2.0751953,5.444336 0,3.2226558 2.0751953,5.4687496 2.0996094,2.2216796 5.0781254,2.2216796 2.978515,0 5.053711,-2.2216796 2.099609,-2.2460938 2.099609,-5.4687496 z m -19.897461,-0.04883 q 0,-2.539062 0.9521484,-4.785156 0.9765625,-2.270508 2.7832032,-4.02832 1.7822265,-1.733399 4.1015625,-2.661133 2.3193359,-0.927734 4.8583989,-0.927734 2.612304,0 4.907226,0.927734 2.319336,0.927734 4.150391,2.734375 1.831054,1.782227 2.783203,4.02832 0.952148,2.246094 0.952148,4.711914 0,2.563477 -0.952148,4.8095708 -0.927735,2.2460937 -2.734375,3.9794921 Q 21.850586,-0.92773438 19.53125,0 17.211914,0.95214844 14.648438,0.95214844 12.133789,0.95214844 9.8144531,0 7.4951172,-0.92773438 5.6884766,-2.7099609 3.8574219,-4.5166016 2.9052734,-6.7626953 1.953125,-9.0087891 1.953125,-11.547853 Z" />
          <path
             id="path12812"
             d="m 78.751953,-17.651367 q -0.09766,-0.415039 -0.317383,-2.294922 -0.195312,-1.5625 -0.341797,-2.587891 -0.219726,1.220703 -0.634765,2.441407 -0.390625,1.220703 -1.000977,2.490234 L 67.106445,1.4404297 57.755859,-17.993164 q -0.585937,-1.196289 -1.02539,-2.319336 -0.415039,-1.123047 -0.732422,-2.22168 -0.02441,1.123047 -0.195313,2.368164 -0.146484,1.220704 -0.463867,2.563477 L 51.505859,0 H 46.15918 l 8.447265,-37.255859 10.546875,22.558593 q 0.244141,0.53711 0.732422,1.782227 0.512695,1.245117 1.220703,3.0761718 0.512696,-1.5380858 1.611328,-3.9062498 0.292969,-0.634766 0.439454,-0.976563 L 79.459961,-37.255859 88.102539,0 h -5.395508 z" />
          <path
             id="path12814"
             d="m 96.748245,-33.154297 q 0,-1.342773 0.976563,-2.319336 1.000976,-0.976562 2.368162,-0.976562 1.41602,0 2.34375,0.952148 0.95215,0.927735 0.95215,2.34375 0,1.416016 -0.95215,2.392578 -0.95215,0.952149 -2.34375,0.952149 -1.367186,0 -2.368162,-0.976563 -0.976563,-1.000976 -0.976563,-2.368164 z M 97.456253,0 V -23.144531 H 102.7541 V 0 Z" />
          <path
             id="path12816"
             d="m 126.94727,-16.552734 q -1.22071,-1.342774 -2.85645,-2.050782 -1.61133,-0.708007 -3.49121,-0.708007 -3.24707,0 -5.2002,2.099609 -1.95312,2.099609 -1.95312,5.566406 0,3.6132814 1.95312,5.6884768 1.97754,2.0507812 5.44434,2.0507812 1.92871,0 3.44238,-0.7080078 1.51367,-0.7324219 2.66114,-2.1972656 v 6.10351559 q -1.46485,0.83007812 -3.14942,1.24511718 -1.66015,0.41503907 -3.54004,0.41503907 -5.44433,0 -8.88672,-3.46679684 -3.41796,-3.4667969 -3.41796,-8.9843746 0,-5.590821 3.54003,-9.008789 3.56446,-3.442383 9.30176,-3.442383 1.80664,0 3.32031,0.366211 1.51368,0.341797 2.83204,1.074218 z" />
          <path
             id="path12818"
             d="m 138.80997,-19.458008 q 0.85449,-2.294922 2.24609,-3.393554 1.41602,-1.098633 3.49121,-1.098633 1.12305,0 2.19727,0.268554 1.09863,0.268555 2.14843,0.78125 l -1.90429,4.492188 q -0.6836,-0.488281 -1.48926,-0.708008 -0.78125,-0.244141 -1.75781,-0.244141 -2.63672,0 -3.78418,2.124024 -1.14746,2.099609 -1.14746,7.080078 V 0 h -5.29785 v -23.193359 h 5.29785 z" />
        </g>
        <g
           style="font-variant:normal;font-weight:500;font-size:50px;font-family:'Futura Md BT';-inkscape-font-specification:Futura-Medium;writing-mode:lr-tb;fill:#ffffff;fill-opacity:1;fill-rule:nonzero;stroke:none"
           id="text68"
           transform="translate(311.427,52)"
           aria-label="ocom">
          <path
             id="path12821"
             d="m 21.850586,-11.499023 q 0,-3.222657 -2.075195,-5.444336 -2.075196,-2.246094 -5.078125,-2.246094 -2.978516,0 -5.0781254,2.246094 -2.0751953,2.221679 -2.0751953,5.444336 0,3.2226558 2.0751953,5.4687496 2.0996094,2.2216796 5.0781254,2.2216796 2.978515,0 5.053711,-2.2216796 2.099609,-2.2460938 2.099609,-5.4687496 z m -19.897461,-0.04883 q 0,-2.539062 0.9521484,-4.785156 0.9765625,-2.270508 2.7832032,-4.02832 1.7822265,-1.733399 4.1015625,-2.661133 2.3193359,-0.927734 4.8583989,-0.927734 2.612304,0 4.907226,0.927734 2.319336,0.927734 4.150391,2.734375 1.831054,1.782227 2.783203,4.02832 0.952148,2.246094 0.952148,4.711914 0,2.563477 -0.952148,4.8095708 -0.927735,2.2460937 -2.734375,3.9794921 Q 21.850586,-0.92773438 19.53125,0 17.211914,0.95214844 14.648438,0.95214844 12.133789,0.95214844 9.8144531,0 7.4951172,-0.92773438 5.6884766,-2.7099609 3.8574219,-4.5166016 2.9052734,-6.7626953 1.953125,-9.0087891 1.953125,-11.547853 Z" />
          <path
             id="path12823"
             d="m 50.997265,-16.552734 q -1.220703,-1.342774 -2.856445,-2.050782 -1.611329,-0.708007 -3.491211,-0.708007 -3.247071,0 -5.200196,2.099609 -1.953125,2.099609 -1.953125,5.566406 0,3.6132814 1.953125,5.6884768 1.977539,2.0507812 5.444336,2.0507812 1.928711,0 3.442383,-0.7080078 1.513672,-0.7324219 2.661133,-2.1972656 v 6.10351559 q -1.464844,0.83007812 -3.149414,1.24511718 -1.660156,0.41503907 -3.540039,0.41503907 -5.444336,0 -8.886719,-3.46679684 -3.417969,-3.4667969 -3.417969,-8.9843746 0,-5.590821 3.540039,-9.008789 3.564453,-3.442383 9.301758,-3.442383 1.806641,0 3.320313,0.366211 1.513671,0.341797 2.832031,1.074218 z" />
          <path
             id="path12825"
             d="m 75.750587,-11.499023 q 0,-3.222657 -2.075195,-5.444336 -2.075195,-2.246094 -5.078125,-2.246094 -2.978515,0 -5.078125,2.246094 -2.075195,2.221679 -2.075195,5.444336 0,3.2226558 2.075195,5.4687496 2.09961,2.2216796 5.078125,2.2216796 2.978516,0 5.053711,-2.2216796 2.099609,-2.2460938 2.099609,-5.4687496 z m -19.89746,-0.04883 q 0,-2.539062 0.952148,-4.785156 0.976562,-2.270508 2.783203,-4.02832 1.782227,-1.733399 4.101563,-2.661133 2.319336,-0.927734 4.858398,-0.927734 2.612305,0 4.907227,0.927734 2.319336,0.927734 4.15039,2.734375 1.831055,1.782227 2.783203,4.02832 0.952149,2.246094 0.952149,4.711914 0,2.563477 -0.952149,4.8095708 -0.927734,2.2460937 -2.734375,3.9794921 Q 75.750587,-0.92773438 73.431252,0 71.111916,0.95214844 68.548439,0.95214844 66.033791,0.95214844 63.714455,0 61.395119,-0.92773438 59.588478,-2.7099609 57.757423,-4.5166016 56.805275,-6.7626953 55.853127,-9.0087891 55.853127,-11.547853 Z" />
          <path
             id="path12827"
             d="m 92.909958,0 h -5.297852 v -23.144531 h 4.980469 v 3.784179 q 1.586914,-2.416992 3.588867,-3.515625 2.026367,-1.123046 4.760738,-1.123046 2.70997,0 4.49219,1.147461 1.78223,1.123046 2.70996,3.442382 1.83106,-2.392578 3.88184,-3.491211 2.07519,-1.098632 4.71191,-1.098632 2.29492,0 4.00391,0.854492 1.70898,0.830078 2.66113,2.441406 0.43946,0.756836 0.63477,1.806641 0.21972,1.049804 0.21972,3.002929 V -14.038086 0 h -5.29785 v -11.889648 q 0,-4.663086 -1.00097,-6.12793 -0.97657,-1.489258 -3.51563,-1.489258 -3.125,0 -4.46777,2.001953 -1.31836,1.977539 -1.31836,6.958008 V 0 h -5.34668 v -11.889648 q 0,-4.296875 -1.04981,-5.957032 -1.02539,-1.660156 -3.564449,-1.660156 -1.5625,0 -2.856446,0.708008 -1.293945,0.708008 -2.050781,1.953125 -0.488281,0.805664 -0.683594,1.977539 -0.195312,1.171875 -0.195312,4.321289 z" />
        </g>
        <g
           style="font-variant:normal;font-weight:500;font-size:50px;font-family:'Futura Md BT';-inkscape-font-specification:Futura-Medium;writing-mode:lr-tb;fill:#ffffff;fill-opacity:1;fill-rule:nonzero;stroke:none"
           id="text72"
           transform="translate(435.523,52)"
           aria-label="put">
          <path
             id="path12830"
             d="m 8.7890625,-11.645508 q 0,3.5888674 1.7822265,5.7373049 1.806641,2.1484375 4.736328,2.1484375 3.00293,0 4.638672,-2.0019531 1.660156,-2.0019532 1.660156,-5.6884763 0,-3.66211 -1.733398,-5.712891 -1.708985,-2.075195 -4.711914,-2.075195 -3.00293,0 -4.6875,2.001953 -1.6845705,2.001953 -1.6845705,5.59082 z m -5.1269531,22.53418 v -34.033203 h 5.2978515 v 3.784179 q 0.9277344,-2.197265 2.9541021,-3.393554 2.050781,-1.196289 4.882812,-1.196289 4.614258,0 7.470703,3.417968 2.880859,3.393555 2.880859,8.935547 0,5.8349613 -2.832031,9.2041019 -2.807617,3.34472654 -7.714844,3.34472654 -2.441406,0 -4.345703,-0.9765625 Q 10.375977,-1.0009766 8.9599609,-3.0029297 V 10.888672 Z" />
          <path
             id="path12832"
             d="m 38.789062,-23.144531 v 13.037109 q 0,3.3691408 1.391602,4.8339845 1.391602,1.4648437 4.516602,1.4648437 3.125,0 4.516601,-1.4648437 1.391602,-1.4648437 1.391602,-4.8339845 v -13.037109 h 5.297851 v 11.450195 q 0,6.6406251 -2.661133,9.6435547 -2.661132,3.00292974 -8.496093,3.00292974 -5.932617,0 -8.59375,-2.97851564 -2.661133,-2.9785156 -2.661133,-9.6679688 v -11.450195 z" />
          <path
             id="path12834"
             d="m 62.157227,0 v -18.505859 h -4.052735 v -4.638672 h 4.052735 v -8.764649 h 5.297851 v 8.764649 h 4.052734 v 4.638672 H 67.455078 V 0 Z" />
        </g>
        <g
           style="font-variant:normal;font-weight:500;font-size:50px;font-family:'Futura Md BT';-inkscape-font-specification:Futura-Medium;writing-mode:lr-tb;fill:#ffffff;fill-opacity:1;fill-rule:nonzero;stroke:none"
           id="text76"
           transform="translate(506.861,52)"
           aria-label="er Co., Ltd.">
          <path
             id="path12837"
             d="M 25.952148,-10.791016 H 7.4462891 q 0.1953125,3.2470707 1.9287109,5.0781254 1.733398,1.8066406 4.614258,1.8066406 2.563476,0 4.272461,-1.0742187 1.708984,-1.0742188 2.978515,-3.4667969 l 4.467774,2.4902344 q -1.953125,3.4912109 -4.833985,5.20019526 -2.880859,1.70898438 -6.762695,1.70898438 -5.5664061,0 -8.8623046,-3.39355474 -3.2958984,-3.3935546 -3.2958984,-9.0576167 0,-5.444336 3.3935547,-8.935547 3.4179687,-3.515625 8.7646483,-3.515625 5.59082,0 8.71582,3.198242 3.125,3.198242 3.125,8.959961 z m -5.493164,-3.564453 q -0.317382,-2.490234 -1.904297,-3.784179 -1.586914,-1.31836 -4.345703,-1.31836 -2.612304,0 -4.199218,1.269531 -1.5869144,1.269532 -2.2216801,3.833008 z" />
          <path
             id="path12839"
             d="m 36.609961,-19.458008 q 0.854492,-2.294922 2.246093,-3.393554 1.416016,-1.098633 3.491211,-1.098633 1.123047,0 2.197266,0.268554 1.098633,0.268555 2.148437,0.78125 l -1.904297,4.492188 q -0.683593,-0.488281 -1.489257,-0.708008 -0.78125,-0.244141 -1.757813,-0.244141 -2.636719,0 -3.78418,2.124024 -1.14746,2.099609 -1.14746,7.080078 V 0 h -5.297852 v -23.193359 h 5.297852 z" />
          <path
             id="path12841"
             d="m 94.588085,-27.050781 q -2.46582,-2.09961 -5.224609,-3.149414 Q 86.629101,-31.25 83.601757,-31.25 q -5.859375,0 -9.545898,3.759766 -3.66211,3.759765 -3.66211,9.741211 0,5.786132 3.564453,9.545898 3.588868,3.7597656 9.033203,3.7597656 3.173829,0 6.030274,-1.1230468 2.880859,-1.1230469 5.517578,-3.3935547 v 6.5673828 q -2.34375,1.68457029 -5.102539,2.51464841 -2.758789,0.83007813 -5.981445,0.83007813 -4.101563,0 -7.592774,-1.34277344 -3.466797,-1.3427734 -6.103515,-3.9550781 -2.612305,-2.5634766 -4.028321,-6.0302739 -1.391601,-3.491211 -1.391601,-7.421875 0,-3.930664 1.391601,-7.373046 1.416016,-3.466797 4.077149,-6.079102 2.661133,-2.636719 6.103515,-3.979492 3.442383,-1.367188 7.446289,-1.367188 3.149414,0 6.00586,0.927735 2.856445,0.90332 5.541992,2.758789 z" />
          <path
             id="path12843"
             d="m 118.70058,-11.499023 q 0,-3.222657 -2.07519,-5.444336 -2.0752,-2.246094 -5.07813,-2.246094 -2.97851,0 -5.07812,2.246094 -2.0752,2.221679 -2.0752,5.444336 0,3.2226558 2.0752,5.4687496 2.09961,2.2216796 5.07812,2.2216796 2.97852,0 5.05372,-2.2216796 2.0996,-2.2460938 2.0996,-5.4687496 z m -19.897457,-0.04883 q 0,-2.539062 0.952149,-4.785156 0.976558,-2.270508 2.783208,-4.02832 1.78222,-1.733399 4.10156,-2.661133 2.31933,-0.927734 4.8584,-0.927734 2.6123,0 4.90722,0.927734 2.31934,0.927734 4.15039,2.734375 1.83106,1.782227 2.78321,4.02832 0.95214,2.246094 0.95214,4.711914 0,2.563477 -0.95214,4.8095708 -0.92774,2.2460937 -2.73438,3.9794921 -1.9043,1.83105472 -4.22363,2.7587891 -2.31934,0.95214844 -4.88281,0.95214844 -2.51465,0 -4.83399,-0.95214844 -2.31933,-0.92773438 -4.12597,-2.7099609 -1.83106,-1.8066407 -2.783208,-4.0527344 -0.952149,-2.2460938 -0.952149,-4.7851567 z" />
          <path
             id="path12845"
             d="m 131.2457,-2.7099609 q 0,-1.3427735 0.92774,-2.2949219 0.92773,-0.9521484 2.27051,-0.9521484 1.34277,0 2.2705,0.9521484 0.92774,0.9521484 0.92774,2.2949219 0,1.3183593 -0.92774,2.24609371 -0.92773,0.90332032 -2.2705,0.90332032 -1.34278,0 -2.27051,-0.90332032 -0.92774,-0.92773441 -0.92774,-2.24609371 z" />
          <path
             id="path12847"
             d="m 149.89395,-6.0546875 4.76074,1.7578125 -6.34765,13.0859375 -3.14942,-1.2451172 z" />
          <path
             id="path12849"
             d="m 177.35156,0 v -35.742187 h 5.81055 v 30.5419917 h 12.98828 V 0 Z" />
          <path
             id="path12851"
             d="m 200.30722,0 v -18.505859 h -4.05273 v -4.638672 h 4.05273 v -8.764649 h 5.29785 v 8.764649 h 4.05274 v 4.638672 h -4.05274 V 0 Z" />
          <path
             id="path12853"
             d="m 229.33809,-11.645508 q 0,-3.588867 -1.68457,-5.59082 -1.66016,-2.001953 -4.66309,-2.001953 -3.00293,0 -4.73633,2.075195 -1.70898,2.050781 -1.70898,5.712891 0,3.6865231 1.66016,5.6884763 1.66015,2.0019531 4.6875,2.0019531 2.88086,0 4.66308,-2.1484375 1.78223,-2.1728516 1.78223,-5.7373049 z m -0.14649,-26.196289 h 5.29786 V 0 h -5.29786 v -3.0029297 q -1.41601,2.0019531 -3.32031,2.97851564 -1.87988,0.9765625 -4.32129,0.9765625 -4.90722,0 -7.73925,-3.34472654 -2.80762,-3.3691406 -2.80762,-9.2041019 0,-5.541992 2.88086,-8.935547 2.88086,-3.417968 7.51953,-3.417968 2.83203,0 4.83398,1.196289 2.02637,1.171875 2.9541,3.393554 z" />
          <path
             id="path12855"
             d="m 243.39571,-2.7099609 q 0,-1.3427735 0.92773,-2.2949219 0.92773,-0.9521484 2.27051,-0.9521484 1.34277,0 2.27051,0.9521484 0.92773,0.9521484 0.92773,2.2949219 0,1.3183593 -0.92773,2.24609371 -0.92774,0.90332032 -2.27051,0.90332032 -1.34278,0 -2.27051,-0.90332032 -0.92773,-0.92773441 -0.92773,-2.24609371 z" />
        </g>
      </g>
    </g>
  </g>
  <g
     id="layer4"
     style="display:inline"
     transform="translate(-0.249912)">
    <g
       id="g12933"
       transform="matrix(0.9,0,0,0.9,8.7433157,7.323185)">
      <path
         transform="translate(71.378884,25.117425)"
         d="m -62.253933,53.144009 c -0.669129,-1.035049 -1.413668,-1.843087 -2.334417,-2.600325 l 0.983454,-1.021555 c 0.997744,0.819942 1.766889,1.639887 2.536825,2.636838 z m -1.287461,-6.273006 h -4.845846 v 1.274762 h 4.845846 z m -1.704181,2.423319 v 2.978945 c 0,0.415923 -0.1008,0.933448 -0.554832,1.08585 -0.289719,0.100005 -0.795338,0.188122 -1.602581,0.200812 l -0.619126,-1.450974 c 0.303213,0.03808 0.529432,0.0762 0.808833,0.0762 0.340516,0 0.454024,-0.138915 0.454024,-0.365917 v -2.524919 h -3.155157 v -3.584575 h 7.912101 v 3.584575 z m -2.208213,1.325564 c -0.164318,0.0381 -0.18891,0.04999 -0.214313,0.08811 -1.021557,1.286668 -1.249362,1.577974 -2.1717,2.397919 l -1.337467,-0.769939 c 1.212054,-0.984249 1.867693,-1.880393 2.436018,-2.827337 l 1.350169,0.846138 0.0635,0.138915 c 0,0.07539 -0.0754,0.113505 -0.12621,0.126195 m -3.925093,-5.641977 v -1.185862 h 4.681536 v -1.110456 l 1.730376,0.201622 c 0.07461,0.0126 0.163507,0.0381 0.163507,0.12621 l -0.0889,0.1008 c -0.151605,0.10161 -0.226219,0.151605 -0.226219,0.189698 v 0.492124 h 4.580733 v 1.185863 z"
         style="fill:#221815;fill-opacity:1;fill-rule:nonzero;stroke:none;stroke-width:0.793749"
         id="path1574" />
      <path
         transform="translate(71.378884,25.117425)"
         d="m -55.48007,45.193016 v 0.99695 h 0.164318 c 0.277812,-0.327818 0.442119,-0.568325 0.719136,-0.99695 z m 0.934244,5.868987 h -1.905794 v 0.84455 h 1.905794 z m 0,-1.780381 h -1.905794 v 0.81915 h 1.905794 z m 5.817393,2.865438 c -0.567531,0.377824 -1.097756,0.404019 -1.627982,0.428625 l -0.719137,-1.539876 c 0.32782,0.0508 0.643731,0.07621 0.97155,0.07621 0.08891,0 0.328612,0 0.504825,-0.12621 0.327819,-0.2151 0.379413,-0.618332 0.379413,-0.833438 0,-0.441324 -0.190508,-1.60258 -1.527968,-2.965449 0.454817,-0.920749 0.908843,-2.0193 1.211262,-2.827338 h -1.563688 v 9.187656 h -1.313657 v -9.464674 c -0.251617,0.12621 -0.251617,0.138105 -0.353218,0.340519 -0.315119,0.655637 -0.504825,1.03505 -0.983457,1.766888 h 0.970758 v 1.186661 h -1.918494 c -0.264318,0.302418 -0.440532,0.466725 -0.831849,0.819943 h 2.258217 v 5.224461 h -1.273968 v -0.415923 h -1.906587 v 0.530223 h -1.299369 v -3.824286 c -0.126195,0.07539 -0.227013,0.126195 -0.592931,0.327818 l -0.832644,-0.933449 c 1.273968,-0.59293 2.031206,-1.149351 2.738436,-1.728787 h -2.221705 v -1.186656 h 1.842292 v -0.996962 h -1.526379 v -1.186657 h 1.526379 V 42.71969 l 1.414463,0.1008 c 0.08811,0.012 0.201622,0.05001 0.201622,0.150818 0,0.07621 -0.0254,0.10161 -0.201622,0.20241 l -0.0762,0.1008 v 0.731836 h 0.934243 v 1.098552 c 0.353219,-0.606427 0.580232,-1.098552 0.869951,-1.969294 l 1.262061,0.606424 v -0.555624 h 4.076701 l 0.568325,0.60563 c -0.480219,1.021557 -0.908844,1.955802 -1.552577,3.193257 1.337471,1.36287 1.564482,2.296318 1.564482,3.091657 0,0.479423 -0.112695,1.501773 -0.97155,2.070099"
         style="fill:#221815;fill-opacity:1;fill-rule:nonzero;stroke:none;stroke-width:0.793749"
         id="path1576" />
      <path
         transform="translate(71.378884,25.117425)"
         d="m -37.146032,46.189966 c -0.31512,0.303213 -2.107407,2.107407 -3.672682,3.773487 0.480217,0.568324 0.732631,0.883444 1.06045,1.400175 l -1.274763,1.02235 c -0.946149,-1.741486 -2.182812,-2.977356 -3.178968,-3.785394 l 0.983454,-0.984249 c 0.478632,0.377825 0.844551,0.706437 1.387476,1.235075 0.985044,-0.983457 1.703388,-1.727201 2.562227,-2.649537 H -46.38449 V 44.77709 h 8.178006 c 0.177795,0 0.380207,-0.13971 0.594519,-0.278607 l 1.046163,1.224759 c -0.251617,0.18891 -0.441324,0.340517 -0.58023,0.466724"
         style="fill:#221815;fill-opacity:1;fill-rule:nonzero;stroke:none;stroke-width:0.793749"
         id="path1578" />
      <path
         transform="translate(71.378884,25.117425)"
         d="m -27.367032,44.208767 c -0.18891,0.012 -0.2151,0.0381 -0.39132,0.227012 -0.631031,0.719137 -1.338263,1.375569 -2.082006,1.968499 v 6.727031 h -1.577975 v -5.553075 c -0.858838,0.568326 -1.703388,1.097757 -3.179763,1.792287 l -1.098549,-1.123155 c 2.63763,-1.03505 5.414168,-3.10515 7.319961,-5.364162 l 1.097757,0.908842 c 0.05081,0.03731 0.2151,0.200813 0.2151,0.302421 0,0.08811 -0.05158,0.10161 -0.303213,0.1143"
         style="fill:#221815;fill-opacity:1;fill-rule:nonzero;stroke:none;stroke-width:0.793749"
         id="path1580" />
      <path
         transform="translate(71.378884,25.117425)"
         d="m -17.84124,46.05106 c -0.45482,1.223962 -1.008857,2.68843 -2.246312,4.278312 -1.274764,1.640682 -2.612232,2.486025 -3.42027,2.990851 l -1.375569,-0.946152 c 0.782639,-0.416718 2.44872,-1.275555 3.950495,-3.294061 1.085848,-1.463675 1.462881,-2.637632 1.666081,-3.318669 h -3.230563 c -0.429419,0.617538 -1.123949,1.589881 -2.398712,2.813844 l -1.249362,-0.858045 c 1.804986,-1.450973 2.978945,-3.332162 3.482973,-4.846637 l 1.300163,0.492125 c 0.07622,0.02619 0.328612,0.138915 0.328612,0.265113 0,0.1008 -0.13971,0.126195 -0.31591,0.177007 -0.07539,0.18891 -0.227015,0.442118 -0.353219,0.681036 h 2.826542 c 0.151605,0 0.354012,-0.11271 0.555625,-0.238918 l 1.022351,1.197769 c -0.252414,0.177008 -0.441326,0.341312 -0.542925,0.606425"
         style="fill:#221815;fill-opacity:1;fill-rule:nonzero;stroke:none;stroke-width:0.793749"
         id="path1582" />
      <path
         transform="translate(71.378884,25.117425)"
         d="m -8.4543535,45.584333 h -5.7419875 v 4.909346 h 5.7419875 z m 0,6.877845 v -0.54213 h -5.7419875 v 0.492125 h -1.501774 v -8.254206 h 8.7455335 v 8.304211 z"
         style="fill:#221815;fill-opacity:1;fill-rule:nonzero;stroke:none;stroke-width:0.793749"
         id="path1584" />
      <path
         transform="translate(71.378884,25.117425)"
         d="m 1.7032627,52.10896 v -0.442121 h -6.6008252 v -1.388268 h 6.6008252 v -4.391817 h -6.5754222 v -1.40097 h 8.0771982 v 7.623176 z"
         style="fill:#221815;fill-opacity:1;fill-rule:nonzero;stroke:none;stroke-width:0.793749"
         id="path1586" />
      <path
         transform="translate(71.378884,25.117425)"
         d="m 11.783891,49.66024 c -1.9946952,1.615282 -3.1924648,2.145508 -4.757738,2.814637 -0.063495,0.17622 -0.08811,0.39132 -0.18891,0.39132 -0.076208,0 -0.1905075,-0.0762 -0.2786063,-0.239712 L 5.675991,51.11201 c 1.0088527,-0.240507 2.6622382,-0.669132 4.681539,-2.183607 1.931193,-1.438273 3.142451,-3.104356 3.697283,-3.861594 l 0.871538,1.262063 c -0.492122,0.656431 -1.476376,1.9812 -3.142454,3.331368 M 8.0858175,46.228066 C 7.3666792,45.635134 6.5086305,45.09221 5.4989812,44.637392 l 0.769941,-1.185862 c 0.8334383,0.365917 1.8549945,0.908047 2.6503313,1.56448 z"
         style="fill:#221815;fill-opacity:1;fill-rule:nonzero;stroke:none;stroke-width:0.793749"
         id="path1588" />
      <path
         transform="translate(71.378884,25.117425)"
         d="m 24.414042,43.362628 c -0.390524,0 -0.681038,0.315913 -0.681038,0.694531 0,0.365921 0.290514,0.693738 0.681038,0.693738 0.379411,0 0.681039,-0.303211 0.681039,-0.693738 0,-0.378618 -0.301628,-0.694531 -0.681039,-0.694531 m 0,1.906588 c -0.669131,0 -1.185863,-0.543718 -1.185863,-1.212057 0,-0.681831 0.530222,-1.211262 1.185863,-1.211262 0.656428,0 1.199353,0.529431 1.199353,1.211262 0,0.681831 -0.542925,1.212057 -1.199353,1.212057 m -0.265116,7.40807 c -1.300163,0.1008 -2.473322,0.150817 -3.621085,0.150817 -3.723483,0 -4.127504,-0.642937 -4.127504,-1.9812 v -7.711287 l 1.400974,0.20241 c 0.277807,0.03731 0.378619,0.138915 0.378619,0.214313 0,0.02619 -0.02542,0.05 -0.113513,0.138105 -0.126202,0.10161 -0.177007,0.138915 -0.177007,0.190507 v 3.053556 c 1.57797,-0.290511 3.268658,-0.769143 5.022848,-1.829592 l 1.047752,1.034255 c 0.03808,0.0381 0.18891,0.177007 0.18891,0.265113 0,0.0762 -0.06272,0.1008 -0.11352,0.1008 -0.06349,0 -0.164295,-0.0381 -0.340518,-0.0381 -2.650332,1.111251 -4.366423,1.552576 -5.805489,1.868488 v 1.9431 c 0,0.732632 0.03809,1.123157 2.145506,1.123157 1.413666,0 2.813842,-0.15003 4.215605,-0.365919 z"
         style="fill:#221815;fill-opacity:1;fill-rule:nonzero;stroke:none;stroke-width:0.793749"
         id="path1590" />
      <path
         transform="translate(71.378884,25.117425)"
         d="m 26.115838,52.311365 v -1.123948 h 4.618043 l 0.593722,-3.671888 h -3.596478 v -1.161256 h 5.072855 l -0.781844,4.833144 h 2.39792 v 1.123948 z"
         style="fill:#221815;fill-opacity:1;fill-rule:nonzero;stroke:none;stroke-width:0.793749"
         id="path1592" />
      <path
         transform="translate(71.378884,25.117425)"
         d="m 35.174913,48.916496 h 8.973342 v -1.603375 h -8.973342"
         style="fill:#221815;fill-opacity:1;fill-rule:nonzero;stroke:none;stroke-width:0.793749"
         id="path1594" />
      <path
         transform="translate(71.378884,25.117425)"
         d="m 53.408935,46.228066 c -0.353223,0.98425 -0.606427,1.703386 -1.45098,3.028155 0.315123,0.265113 0.618333,0.530226 1.059657,0.959646 l -0.934242,1.085055 c -0.213525,-0.20241 -0.454027,-0.454025 -0.984247,-0.921543 -0.97076,1.08585 -1.879605,1.969294 -4.0005,3.07975 l -1.135067,-1.185862 c 2.043113,-0.707232 3.116267,-1.779588 4.062414,-2.776539 -0.529429,-0.391317 -1.122361,-0.808038 -2.081212,-1.325562 l 0.769143,-0.946151 c 0.757237,0.327819 1.274761,0.606425 2.145507,1.198562 0.758029,-1.123155 0.958851,-1.703387 1.135857,-2.334417 h -3.231359 c -0.831847,1.161256 -1.450971,1.905 -2.283616,2.561431 l -1.173959,-0.869952 c 1.780385,-1.212054 2.991644,-3.370261 3.534569,-4.948236 l 1.388268,0.404019 c 0.07539,0.0254 0.252414,0.10161 0.252414,0.189698 0,0.07539 -0.1143,0.126195 -0.291306,0.2016 -0.150818,0.303213 -0.390525,0.795339 -0.642938,1.223964 h 2.901954 c 0.151605,0 0.379409,-0.17622 0.56832,-0.30242 l 0.934248,0.97155 c -0.227016,0.18891 -0.44212,0.415926 -0.542925,0.707231"
         style="fill:#221815;fill-opacity:1;fill-rule:nonzero;stroke:none;stroke-width:0.793749"
         id="path1596" />
      <path
         transform="translate(71.378884,25.117425)"
         d="M 66.06448,52.765391 C 64.852423,51.71764 64.3857,51.162016 63.93088,50.480977 v 3.066258 h -1.273968 v -3.243263 c -0.517525,0.744539 -1.501771,1.918494 -2.600325,2.827337 l -1.034256,-0.908843 c 1.123158,-0.858838 2.536824,-2.309812 3.142458,-3.786187 h -1.816893 v -1.223963 h 2.309016 v -1.300162 h -1.123153 c -0.277814,0.581025 -0.428625,0.782638 -0.517529,0.920749 l -1.08585,-0.554832 c 0.757238,-1.046956 1.060454,-2.082006 1.212854,-2.978149 l 1.071562,0.252412 c 0.26511,0.06349 0.26511,0.126195 0.26511,0.164318 0,0.07541 -0.0246,0.1008 -0.125415,0.138105 l -0.13971,0.0889 c -0.10161,0.365917 -0.150817,0.554829 -0.227016,0.781843 h 0.669131 v -2.043907 l 1.262062,0.08811 c 0.10161,0.0126 0.34052,0.02461 0.34052,0.164317 l -0.1008,0.138915 c -0.20241,0.163508 -0.227808,0.177008 -0.227808,0.239711 v 1.412875 h 2.373313 v 1.186656 h -2.373306 v 1.300157 h 2.537621 v 1.223962 h -2.309813 c 0.315914,0.883445 1.16126,2.208213 2.84004,3.331368 z m -6.738939,-3.256756 c -0.2016,-0.17622 -0.492918,-0.441326 -0.731835,-0.781844 v 4.820444 h -1.287463 v -4.391819 c -0.290513,0.644525 -0.581027,1.173956 -1.149345,1.906587 l -1.034262,-0.758031 c 0.858841,-0.97155 1.640682,-2.687637 2.019301,-4.353718 h -1.552575 v -1.186658 h 1.716881 v -2.107405 l 1.14856,0.08811 c 0.1008,0.0135 0.365915,0.02539 0.365915,0.151605 l -0.1008,0.151605 -0.12621,0.138915 v 1.577179 h 1.388268 v 1.186658 h -1.388268 v 0.693738 c 0.265108,0.606424 0.74374,1.249362 1.513683,1.893093 z"
         style="fill:#221815;fill-opacity:1;fill-rule:nonzero;stroke:none;stroke-width:0.793749"
         id="path1598" />
      <path
         transform="translate(71.378884,25.117425)"
         d="m 77.520673,44.889803 c -0.63103,-0.59293 -1.325559,-1.035049 -1.703385,-1.273968 l 0.706439,-0.946944 c 0.630234,0.302418 1.198561,0.655637 1.817685,1.135857 z m 0.327821,8.582025 c -1.362074,0 -2.561432,-2.044699 -3.02895,-3.117055 -0.781842,-1.766889 -0.946148,-3.06705 -1.073151,-4.076702 h -5.476877 v -1.362867 h 5.351468 c -0.07542,-1.009651 -0.11352,-1.45177 -0.11352,-2.170906 l 1.135065,0.138915 c 0.354007,0.03809 0.56832,0.0762 0.56832,0.252412 0,0.0627 -0.03809,0.1008 -0.138885,0.151605 -0.138105,0.07539 -0.150818,0.126195 -0.150818,0.17622 0.0365,0.757238 0.0365,0.946944 0.04999,1.451769 h 4.0005 v 1.362869 h -3.911602 c 0.138885,0.819945 0.427833,2.587626 1.438275,4.265613 0.479422,0.808038 0.896143,1.148554 1.185862,1.148554 0.277814,0 0.530228,-0.883441 0.606426,-1.17316 l 1.022349,0.958848 c -0.10161,0.377827 -0.580233,1.9939 -1.464469,1.9939 m -3.760785,-1.073148 c -1.097757,0.2151 -3.659981,0.69453 -3.672684,0.69453 -0.126195,0.02541 -0.743742,0.11352 -0.882648,0.138915 -0.290511,0.04999 -0.46752,0.08811 -0.606426,0.239712 -0.164318,0.189698 -0.17622,0.214313 -0.265112,0.214313 -0.05001,0 -0.151605,-0.0246 -0.164317,-0.138915 l -0.239712,-1.552574 c 0.694531,-0.08811 1.135855,-0.150817 2.209006,-0.289719 v -2.599531 h -1.969294 v -1.36287 h 5.124451 v 1.36287 h -1.615285 v 2.385219 c 0.819946,-0.10161 1.085058,-0.138915 2.144715,-0.290514 z"
         style="fill:#221815;fill-opacity:1;fill-rule:nonzero;stroke:none;stroke-width:0.793749"
         id="path1600" />
      <path
         transform="translate(71.378884,25.117425)"
         d="m 86.679759,50.619886 0.909637,-0.921545 h -1.893891 c -0.59293,1.047749 -0.958846,1.602581 -1.186654,1.943892 1.060447,-0.0508 2.107407,-0.1143 3.155947,-0.240504 -0.177007,-0.163507 -0.480216,-0.441327 -0.985039,-0.781843 M 85.770912,43.99366 c -0.908844,1.111251 -1.577178,1.729582 -2.612229,2.473324 h 5.426866 C 87.512398,45.761341 86.768656,45.180317 85.770912,43.99366 m 3.748881,9.629775 c -0.12699,-0.18891 -0.277811,-0.467519 -0.83264,-1.123157 -1.729587,0.214313 -4.568827,0.530226 -4.934748,0.567531 -0.26511,0.02541 -1.603374,0.138915 -1.905792,0.189698 l -0.12699,0.08811 c -0.07461,0.151605 -0.112725,0.189697 -0.150817,0.189697 l -0.1143,-0.1143 -0.403223,-1.653381 c 0.795336,0 1.147761,-0.012 1.779585,-0.0373 0.315122,-0.504826 0.580233,-0.946944 1.148561,-2.032 h -2.864642 v -1.223961 h 9.27576 v 1.223964 h -2.663031 c 1.085054,0.858042 2.195514,2.019298 2.940845,2.978943 z m 0.832645,-6.310314 c -0.643729,-0.2151 -1.072354,-0.454023 -1.451772,-0.669129 v 1.073148 h -6.082503 v -1.03505 c -0.643729,0.39132 -1.022349,0.581025 -1.577181,0.819945 l -0.959643,-1.109664 c 2.145506,-0.846136 3.457575,-2.019298 4.606923,-3.849687 l 1.804194,0.315914 c 0.1008,0.012 0.18891,0.07539 0.18891,0.163507 0,0.07541 -0.05003,0.13971 -0.11271,0.164318 0.618333,0.706438 1.337472,1.312068 2.132012,1.804194 0.44212,0.265111 1.45177,0.820737 2.448723,1.110456 z"
         style="fill:#221815;fill-opacity:1;fill-rule:nonzero;stroke:none;stroke-width:0.793749"
         id="path1602" />
      <path
         transform="translate(71.378884,25.117425)"
         d="m 96.432585,53.270216 v -1.363663 h 2.978151 V 47.69174 h -1.905791 v -1.362868 h 1.905791 V 42.71969 l 1.552574,0.150818 0.13811,0.1143 -0.0627,0.125415 c -0.1008,0.10161 -0.17622,0.164317 -0.17622,0.214312 v 3.004344 h 2.30981 v 1.362867 h -2.30981 v 4.214813 h 2.62493 v 1.363665 z m 0.618333,-2.852739 C 96.6723,50.139665 96.204783,49.786447 95.674555,49.206215 v 4.291013 h -1.324791 v -3.533775 c -0.429421,0.378618 -0.694533,0.59293 -1.110459,0.858043 l -0.946149,-0.97155 c 1.38827,-0.858043 2.549526,-2.0574 3.344888,-3.495673 H 92.81068 v -1.363662 h 1.513683 v -2.246313 l 1.464492,0.164317 c 0.07621,0.0126 0.1389,0.05081 0.1389,0.11352 l -0.0889,0.126195 c -0.17622,0.17622 -0.200812,0.20241 -0.200812,0.252414 v 1.589882 h 1.362075 l 0.568321,0.568326 c -0.189697,0.479422 -0.467517,1.135855 -1.388268,2.385217 0.592931,0.681038 1.021556,1.022349 1.627191,1.413669 z"
         style="fill:#221815;fill-opacity:1;fill-rule:nonzero;stroke:none;stroke-width:0.793749"
         id="path1604" />
    </g>
  </g>
</svg>
